<?xml version="1.0" encoding="UTF-8"?>
<svg id="Calque_1" data-name="Calque 1" xmlns="http://www.w3.org/2000/svg" viewBox="0 0 673.86 410.55">
  <defs>
    <style>
      .cls-1 {
        fill: #e64552;
      }
    </style>
  </defs>
  <path class="cls-1" d="m672.84,189.8c-1.54-11.75-4.43-23.24-9.01-34.45-5.56-13.6-13.27-26.37-22.67-38.46-2.98-3.83-6.05-7.62-9.8-11.01,3.79,5.25,7.54,10.5,10.84,15.97,13.73,22.75,19.87,46.65,16.93,72.01-2.03,17.51-8.33,33.95-18.57,49.37-16.83,25.33-41.17,44.93-70.63,60.36-48.61,25.46-102.45,36.9-159.67,38.79-25.66.85-51.18-.56-76.5-4.13-5.57-.79-11.11-1.74-16.74-2.63,2.21-1.89,4.15-3.53,6.06-5.19,2.47-2.14,5.61-3.72,6.92-6.78,3.16-7.41,2.04-14.83.34-22.23-2.28-9.87-6.43-19.29-11.24-28.5-.72-1.38-.09-1.64,1.23-1.75,2.31-.19,3.75-1.15,5.08-2.75,21.37-25.77,42.83-51.49,64.26-77.22.89-1.07,1.46-1.97,3.64-1.18,35.33,12.83,70.71,25.56,106.08,38.3,1.25.45,2.17,1.06,2.83,2.07,2.43,3.7,5.14,7.28,8.28,10.61,7.87,8.35,16.69,15.84,29.35,19.22,10.97,2.92,21.42,2.47,29.73-5.07,7.09-6.43,14.6-12.53,22-18.71,6.61-5.52,9.9-12.24,10.77-19.7,2.17-18.58-5.74-34.75-19.1-49.27-7.49-8.14-16.69-14.95-28.85-18.35-8.52-2.38-17.13-2.6-24.84,1.65-9.94,5.48-19.11,11.8-28.02,18.37-5.9,4.35-8.71,9.96-10.79,16-1.44,4.18-1,8.43-.97,13.16-.95-.83-1.52-1.29-2.04-1.78-17.74-17.11-35.46-34.23-53.24-51.31-1.06-1.02-.77-1.58.08-2.46,7.21-7.52,14.37-15.08,21.55-22.61,4.11-4.31,8.24-8.62,12.51-13.07,2.98,7.33,6.21,14.23,11.82,20.19,3.94,4.18,8.61,6.46,15.54,5.04,8.89-1.82,17.91-3.29,26.95-4.57,4.77-.67,7.95-2.75,10.58-5.8,5.39-6.25,7.73-13.4,8.62-20.82,1.37-11.33,1.14-22.67-2.04-33.82-2.34-8.2-5.27-16.28-11.51-23.18-4.32-4.78-9.75-8.12-17.59-7.33-8.18.82-16.33,1.88-24.53,2.59-4.98.43-9.22,1.59-12.33,5.05-3.66,4.07-6.01,8.58-7.5,13.44-2.63,8.57-2.76,17.29-2.22,26.03.14,2.3-.76,2.93-3.32,3.28-24.11,3.28-48.2,6.64-72.3,10.02-2.1.29-3.55.07-5.09-1.41-21.19-20.34-42.49-40.61-63.77-60.88-.49-.47-.75-1.26-2.57-1.03v14.18c-.55,3.39.18,6.81-.38,10.2-.59,15.78-1.21,31.56-1.73,47.34-.05,1.63-.66,2.14-2.66,2.42-19.12,2.63-38.2,5.38-57.31,8.07-16.8,2.37-33.61,4.68-50.4,7.08-1.58.23-2.34.25-2.51-1.34-.79-7.01-2.18-13.96-3.76-20.88-1.78-7.8-3.75-15.57-7.54-22.96-1.3-2.53-3.02-2.89-5.97-2.63-12.01,1.06-24.06,1.83-36.11,3.38.14-.33.15-.59.32-.74,3.29-2.93,6.48-5.95,9.93-8.75,23.21-18.89,50.38-32.89,80.46-43.24,32.65-11.24,66.75-17.57,102.03-19.82,30.25-1.92,60.34-.92,90.26,3.21,4.64.64,9.27,1.32,13.9,1.97C414.93,4.53,383.38.9,351.33.19c-9.43-.26-18.85-.25-28.28,0-17.27.34-34.43,1.64-51.52,3.69-45.61,5.47-89.06,16.41-129.84,34.09-35.54,15.41-66.99,35.03-92.59,60.58-22.13,22.09-37.8,46.79-45.01,74.88-4.46,17.4-5.3,34.88-2.37,52.52,3.2,19.29,10.59,37.46,21.67,54.62,10.94,16.94,24.95,32.08,41.39,45.72,27.4,22.72,59.34,40.12,94.67,53.46,48.04,18.15,98.7,27.67,151.4,30.18,35.81,1.7,71.41-.02,106.72-5.35,52.28-7.89,101.13-22.84,145.41-47.13,24.9-13.66,47.01-29.84,65.46-49.24,23.59-24.79,39.08-52.44,43.92-83.78,1.78-11.51,1.98-23.05.47-34.62Zm-164.2-.46c3.65-5.03,10.28-6.97,17.58-5.29,9.28,2.14,15.91,7.23,21.43,13.39,8.28,9.24,13.16,19.47,12.96,31.07-.05,3.07-.86,6.09-2.46,8.89-3.66,6.41-10.84,8.97-19.36,7.02-7.1-1.63-16.41-7.6-20.46-13.25,7.43.01,14.24-.93,20.42-4.15,2.82-1.47,3.26-2.97,1.98-5.5-2.89-5.74-7.44-9.98-14.57-12.28-1.36-.44-2.57-.47-4,.08-5,1.91-10.03,1.38-14.98-.25-.69-.23-1.41-.47-1.52-1.21-.93-6.38-1.22-12.74,2.97-18.52Zm-32.9-127.04c3.53-5.37,8.95-5.9,13.96-1.4,4.92,4.43,7.19,9.96,9.01,15.58,1.78,5.49,2.72,11.1,2.59,16.8-.06,6.53-.44,13.03-4.56,18.88-3.59,5.09-8.81,5.61-13.66,1.33-3.62-3.19-5.7-7.12-7.43-11.18-.41-.96,0-1.55.77-2.22,1.94-1.66,3.57-3.6,5.71-5.05,3.62-2.44,3.52-5.59,2.97-8.79-.3-1.77-1.4-3.21-4.26-2.41-1.31.37-2.75.44-4.13.67q-5.46.92-5.47-3.76c0-6.4.7-12.71,4.48-18.47Zm-318.48,103.87c-6.54-20.57-10.07-41.49-10.89-62.74,6.53,20.57,10.47,41.45,10.89,62.74Zm119.8,170.86c-1.38,3.42-4.08,4.53-8.26,3.22-3.87-1.21-6.84-3.46-9.61-5.84-9.83-8.46-16.9-18.39-22.72-28.96-4.74-8.6-8.59-17.42-9.84-26.87-.08-.61-.12-1.22-.22-2.24.1-.9.1-2.22.43-3.49,1.34-5.23,5.29-6.63,10.89-3.82,6.18,3.11,10.79,7.55,14.96,12.29,11.17,12.72,19.33,26.62,23.76,41.88,1.31,4.51,2.5,9.14.62,13.82Zm35.96-163.82c-.04.9-.07,1.8-.11,2.7-.48,3.33-.08,6.67-.22,10.01-.04.83.17,1.67-.18,2.49-.71,23.01-1.42,46.03-2.13,69.04-4.3-5.43-8.1-10.89-12.66-15.96-5.35-5.94-11.08-11.57-18.76-15.66-2.05-1.09-4.2-1.98-6.52-2.64-4.35-1.25-8.3-1.26-12.56.81-13.15,6.36-25.88,13.15-37.73,21.09-5.81,3.89-8.05,8.68-8.13,14.4-.13,9.21,2.59,18.03,5.92,26.74,3.03,7.91,6.71,15.63,11.15,23.99-6.58-3.15-12.43-5.79-18.1-8.69-25.87-13.21-48.76-29.17-67.45-48.98-11.76-12.47-21.28-25.99-27.94-40.76-9.03-20-12.19-40.62-8.86-61.83,3.73-23.75,15.13-44.88,32.65-63.93.45-.49.94-.94,1.43-1.4.05-.05.16-.05.31-.09.76.72.35,1.59.35,2.37-.02,12.12,1.06,24.19,2.82,36.21,3.06,20.89,8.32,41.44,14.71,61.81.4,1.28.94,1.91,2.85,1.68,12.32-1.51,24.65-2.93,36.73-5.47,6.27-1.32,6.63-1.79,7.13-7.18.84-9.05.35-18.06-.85-27.07-.5-3.73-1.01-7.45-1.44-11.19-.35-3.06,1.75-4.23,5.43-3.06,8.29,2.63,16.57,5.27,24.85,7.91,25.45,8.11,50.9,16.23,76.35,24.35.35.11.67.27,1,.4.28,2.64.36,5.28-.05,7.91Z"/>
</svg>